<svg id="Layer_1" data-name="Layer 1" xmlns="http://www.w3.org/2000/svg" viewBox="0 0 672 345"><defs><style>.cls-1{fill:#8ac4ff;}.cls-2{fill:#74b9ff;}</style></defs><title>artwork2</title><path class="cls-1" d="M-2,1S92-14,145,69s185,73,185,73,117-25,176,15,90,16,100,18,55-13,63,13-13,60-13,60-86,115-154,63S239,193,224,245,22,362,8,309C-2,271.28-2,1-2,1Z"/><path class="cls-2" d="M3,23s107,9,145,88,217,49,217,49,107-15,144,26,124,3,124,3,49-1.39,32.48,38.81S621,340,577,334s-56,4-91-25S291,198,243,247,55,367,3,338,3,29,3,29"/></svg>