<svg id="Layer_1" data-name="Layer 1" xmlns="http://www.w3.org/2000/svg" viewBox="0 0 533.88 666.17"><defs><style>.cls-1{fill:#8ac4ff;}.cls-2{fill:#74b9ff;}</style></defs><title>artwork1</title><path class="cls-1" d="M.34-4.74S-7,55.27,58.52,95.69s84.52,42.87,65.53,88.19,33.68,110.85,66.14,125.54,107.79,68,115.75,93.09-20.21,86.35,43.48,124.93,150.65,51.45,160.45,43.48,21.44-205.77,23.89-224.75S517.22,144.68,517.22,130.6,505.58-30.47,503.75-39,401.47-92.32,396-92.93s-166,3.06-166,3.06Z" transform="translate(-0.1 93)"/><path class="cls-2" d="M22.62-13S50,75,81,76s98,71,75,93,17,116,84,137,117,11,132,82,139,82,139,82V-13Z" transform="translate(-0.1 93)"/></svg>