<?xml version="1.0" encoding="utf-8"?>
<!-- Generator: Adobe Illustrator 23.0.1, SVG Export Plug-In . SVG Version: 6.00 Build 0)  -->
<svg version="1.1" id="Layer_1" xmlns="http://www.w3.org/2000/svg" xmlns:xlink="http://www.w3.org/1999/xlink" x="0px" y="0px"
	 viewBox="0 0 302.6 288" style="enable-background:new 0 0 302.6 288;" xml:space="preserve">
<style type="text/css">
	.st0{fill:#669A9B;}
</style>
<image style="display:none;overflow:visible;" width="805" height="805" xlink:href="koalacare.ec945afa.png"  transform="matrix(0.4899 0 0 0.4899 -24.2128 -43.3617)">
</image>
<path class="st0" d="M79.9,133.9c-6.5,0-11.8-5.3-11.8-11.8c0-0.7,0.1-1.5,0.2-2.2c-10.6,0.9-18.9,9.8-18.9,20.6
	c0,11.4,9.3,20.7,20.7,20.7c11.4,0,20.7-9.3,20.7-20.7c0-3.7-1-7.1-2.6-10.1C86,132.6,83.1,133.9,79.9,133.9z"/>
<path class="st0" d="M238.7,92c-6.5-0.5-11.4-6.1-10.9-12.6c0.1-0.7,0.2-1.4,0.4-2.1c-10.6,0.2-19.5,8.4-20.3,19.2
	c-0.8,11.4,7.8,21.3,19.2,22.1c11.4,0.8,21.3-7.8,22.1-19.2c0.3-3.6-0.5-7.1-1.9-10.2C244.9,91.2,241.9,92.3,238.7,92z"/>
<path class="st0" d="M188.6,133.5c24.5,44.4,4.5,66.9-11.7,73c-18.8,7.1-55.8-0.9-53.1-58.5c0.8-17.3,6.7-32.9,23.4-37.6
	C163.8,105.7,180.2,118.3,188.6,133.5z"/>
</svg>
